<?xml version="1.0" encoding="utf-8" ?>
<svg baseProfile="full" height="200" version="1.1" viewBox="0,0,200,200" width="200" xmlns="http://www.w3.org/2000/svg" xmlns:ev="http://www.w3.org/2001/xml-events" xmlns:xlink="http://www.w3.org/1999/xlink"><defs /><rect fill="rgb(144,38,238)" height="2" width="2" x="20" y="76" /><rect fill="rgb(159,28,255)" height="2" width="2" x="22" y="76" /><rect fill="rgb(159,28,255)" height="2" width="2" x="24" y="76" /><rect fill="rgb(155,28,255)" height="2" width="2" x="26" y="76" /><rect fill="rgb(138,39,237)" height="2" width="2" x="28" y="76" /><rect fill="rgb(78,92,240)" height="2" width="2" x="48" y="76" /><rect fill="rgb(76,96,255)" height="2" width="2" x="50" y="76" /><rect fill="rgb(74,94,255)" height="2" width="2" x="52" y="76" /><rect fill="rgb(72,94,255)" height="2" width="2" x="54" y="76" /><rect fill="rgb(70,95,255)" height="2" width="2" x="56" y="76" /><rect fill="rgb(73,92,255)" height="2" width="2" x="58" y="76" /><rect fill="rgb(73,92,255)" height="2" width="2" x="60" y="76" /><rect fill="rgb(74,92,255)" height="2" width="2" x="62" y="76" /><rect fill="rgb(72,95,255)" height="2" width="2" x="64" y="76" /><rect fill="rgb(74,95,255)" height="2" width="2" x="66" y="76" /><rect fill="rgb(77,98,255)" height="2" width="2" x="68" y="76" /><rect fill="rgb(76,94,244)" height="2" width="2" x="70" y="76" /><rect fill="rgb(26,26,26)" height="2" width="2" x="84" y="76" /><rect fill="rgb(25,25,25)" height="2" width="2" x="86" y="76" /><rect fill="rgb(24,24,24)" height="2" width="2" x="98" y="76" /><rect fill="rgb(24,24,24)" height="2" width="2" x="100" y="76" /><rect fill="rgb(24,24,24)" height="2" width="2" x="106" y="76" /><rect fill="rgb(23,23,23)" height="2" width="2" x="108" y="76" /><rect fill="rgb(24,24,24)" height="2" width="2" x="114" y="76" /><rect fill="rgb(24,24,24)" height="2" width="2" x="116" y="76" /><rect fill="rgb(24,24,24)" height="2" width="2" x="118" y="76" /><rect fill="rgb(24,24,24)" height="2" width="2" x="120" y="76" /><rect fill="rgb(24,24,24)" height="2" width="2" x="122" y="76" /><rect fill="rgb(24,24,24)" height="2" width="2" x="124" y="76" /><rect fill="rgb(24,24,24)" height="2" width="2" x="126" y="76" /><rect fill="rgb(44,44,44)" height="2" width="2" x="128" y="76" /><rect fill="rgb(25,25,25)" height="2" width="2" x="136" y="76" /><rect fill="rgb(25,25,25)" height="2" width="2" x="138" y="76" /><rect fill="rgb(24,24,24)" height="2" width="2" x="140" y="76" /><rect fill="rgb(24,24,24)" height="2" width="2" x="142" y="76" /><rect fill="rgb(25,25,25)" height="2" width="2" x="144" y="76" /><rect fill="rgb(24,24,24)" height="2" width="2" x="154" y="76" /><rect fill="rgb(23,23,23)" height="2" width="2" x="156" y="76" /><rect fill="rgb(23,23,23)" height="2" width="2" x="158" y="76" /><rect fill="rgb(23,23,23)" height="2" width="2" x="160" y="76" /><rect fill="rgb(24,24,24)" height="2" width="2" x="162" y="76" /><rect fill="rgb(24,24,24)" height="2" width="2" x="164" y="76" /><rect fill="rgb(27,27,27)" height="2" width="2" x="166" y="76" /><rect fill="rgb(146,29,255)" height="2" width="2" x="22" y="78" /><rect fill="rgb(146,31,249)" height="2" width="2" x="24" y="78" /><rect fill="rgb(148,28,255)" height="2" width="2" x="26" y="78" /><rect fill="rgb(156,31,255)" height="2" width="2" x="28" y="78" /><rect fill="rgb(76,96,255)" height="2" width="2" x="46" y="78" /><rect fill="rgb(68,91,253)" height="2" width="2" x="48" y="78" /><rect fill="rgb(74,88,254)" height="2" width="2" x="50" y="78" /><rect fill="rgb(71,91,250)" height="2" width="2" x="52" y="78" /><rect fill="rgb(72,89,255)" height="2" width="2" x="54" y="78" /><rect fill="rgb(75,88,255)" height="2" width="2" x="56" y="78" /><rect fill="rgb(69,91,255)" height="2" width="2" x="58" y="78" /><rect fill="rgb(69,91,254)" height="2" width="2" x="60" y="78" /><rect fill="rgb(69,90,254)" height="2" width="2" x="62" y="78" /><rect fill="rgb(68,90,255)" height="2" width="2" x="64" y="78" /><rect fill="rgb(71,89,255)" height="2" width="2" x="66" y="78" /><rect fill="rgb(71,89,255)" height="2" width="2" x="68" y="78" /><rect fill="rgb(69,90,253)" height="2" width="2" x="70" y="78" /><rect fill="rgb(75,91,237)" height="2" width="2" x="72" y="78" /><rect fill="rgb(24,24,24)" height="2" width="2" x="84" y="78" /><rect fill="rgb(22,22,22)" height="2" width="2" x="86" y="78" /><rect fill="rgb(22,22,22)" height="2" width="2" x="88" y="78" /><rect fill="rgb(25,25,25)" height="2" width="2" x="98" y="78" /><rect fill="rgb(24,24,24)" height="2" width="2" x="100" y="78" /><rect fill="rgb(24,24,24)" height="2" width="2" x="106" y="78" /><rect fill="rgb(23,23,23)" height="2" width="2" x="108" y="78" /><rect fill="rgb(24,24,24)" height="2" width="2" x="114" y="78" /><rect fill="rgb(24,24,24)" height="2" width="2" x="116" y="78" /><rect fill="rgb(22,22,22)" height="2" width="2" x="118" y="78" /><rect fill="rgb(24,24,24)" height="2" width="2" x="120" y="78" /><rect fill="rgb(23,23,23)" height="2" width="2" x="122" y="78" /><rect fill="rgb(24,24,24)" height="2" width="2" x="124" y="78" /><rect fill="rgb(25,25,25)" height="2" width="2" x="126" y="78" /><rect fill="rgb(24,24,24)" height="2" width="2" x="134" y="78" /><rect fill="rgb(23,23,23)" height="2" width="2" x="136" y="78" /><rect fill="rgb(25,25,25)" height="2" width="2" x="138" y="78" /><rect fill="rgb(24,24,24)" height="2" width="2" x="140" y="78" /><rect fill="rgb(24,24,24)" height="2" width="2" x="142" y="78" /><rect fill="rgb(24,24,24)" height="2" width="2" x="144" y="78" /><rect fill="rgb(23,23,23)" height="2" width="2" x="146" y="78" /><rect fill="rgb(20,20,20)" height="2" width="2" x="148" y="78" /><rect fill="rgb(25,25,25)" height="2" width="2" x="154" y="78" /><rect fill="rgb(23,23,23)" height="2" width="2" x="156" y="78" /><rect fill="rgb(25,25,25)" height="2" width="2" x="158" y="78" /><rect fill="rgb(28,28,28)" height="2" width="2" x="160" y="78" /><rect fill="rgb(25,25,25)" height="2" width="2" x="162" y="78" /><rect fill="rgb(25,25,25)" height="2" width="2" x="164" y="78" /><rect fill="rgb(23,23,23)" height="2" width="2" x="166" y="78" /><rect fill="rgb(24,24,24)" height="2" width="2" x="168" y="78" /><rect fill="rgb(160,28,255)" height="2" width="2" x="22" y="80" /><rect fill="rgb(150,26,253)" height="2" width="2" x="24" y="80" /><rect fill="rgb(146,29,254)" height="2" width="2" x="26" y="80" /><rect fill="rgb(150,25,255)" height="2" width="2" x="28" y="80" /><rect fill="rgb(139,43,221)" height="2" width="2" x="30" y="80" /><rect fill="rgb(72,95,255)" height="2" width="2" x="44" y="80" /><rect fill="rgb(74,89,254)" height="2" width="2" x="46" y="80" /><rect fill="rgb(73,87,254)" height="2" width="2" x="48" y="80" /><rect fill="rgb(68,92,249)" height="2" width="2" x="50" y="80" /><rect fill="rgb(71,88,255)" height="2" width="2" x="52" y="80" /><rect fill="rgb(68,92,253)" height="2" width="2" x="54" y="80" /><rect fill="rgb(66,93,250)" height="2" width="2" x="56" y="80" /><rect fill="rgb(69,91,255)" height="2" width="2" x="58" y="80" /><rect fill="rgb(69,91,255)" height="2" width="2" x="60" y="80" /><rect fill="rgb(69,90,255)" height="2" width="2" x="62" y="80" /><rect fill="rgb(69,91,252)" height="2" width="2" x="64" y="80" /><rect fill="rgb(69,91,250)" height="2" width="2" x="66" y="80" /><rect fill="rgb(69,90,255)" height="2" width="2" x="68" y="80" /><rect fill="rgb(72,92,255)" height="2" width="2" x="70" y="80" /><rect fill="rgb(24,24,24)" height="2" width="2" x="86" y="80" /><rect fill="rgb(25,25,25)" height="2" width="2" x="88" y="80" /><rect fill="rgb(24,24,24)" height="2" width="2" x="98" y="80" /><rect fill="rgb(26,26,26)" height="2" width="2" x="100" y="80" /><rect fill="rgb(24,24,24)" height="2" width="2" x="106" y="80" /><rect fill="rgb(23,23,23)" height="2" width="2" x="108" y="80" /><rect fill="rgb(22,22,22)" height="2" width="2" x="120" y="80" /><rect fill="rgb(39,39,39)" height="2" width="2" x="122" y="80" /><rect fill="rgb(22,22,22)" height="2" width="2" x="132" y="80" /><rect fill="rgb(24,24,24)" height="2" width="2" x="134" y="80" /><rect fill="rgb(24,24,24)" height="2" width="2" x="146" y="80" /><rect fill="rgb(24,24,24)" height="2" width="2" x="148" y="80" /><rect fill="rgb(25,25,25)" height="2" width="2" x="154" y="80" /><rect fill="rgb(23,23,23)" height="2" width="2" x="156" y="80" /><rect fill="rgb(24,24,24)" height="2" width="2" x="166" y="80" /><rect fill="rgb(23,23,23)" height="2" width="2" x="168" y="80" /><rect fill="rgb(145,47,237)" height="2" width="2" x="22" y="82" /><rect fill="rgb(145,27,252)" height="2" width="2" x="24" y="82" /><rect fill="rgb(147,28,251)" height="2" width="2" x="26" y="82" /><rect fill="rgb(149,27,250)" height="2" width="2" x="28" y="82" /><rect fill="rgb(148,32,250)" height="2" width="2" x="30" y="82" /><rect fill="rgb(76,95,236)" height="2" width="2" x="42" y="82" /><rect fill="rgb(70,88,253)" height="2" width="2" x="44" y="82" /><rect fill="rgb(68,89,255)" height="2" width="2" x="46" y="82" /><rect fill="rgb(68,90,253)" height="2" width="2" x="48" y="82" /><rect fill="rgb(71,90,255)" height="2" width="2" x="50" y="82" /><rect fill="rgb(72,90,245)" height="2" width="2" x="52" y="82" /><rect fill="rgb(76,90,232)" height="2" width="2" x="54" y="82" /><rect fill="rgb(80,90,219)" height="2" width="2" x="56" y="82" /><rect fill="rgb(81,91,220)" height="2" width="2" x="58" y="82" /><rect fill="rgb(79,91,220)" height="2" width="2" x="60" y="82" /><rect fill="rgb(80,90,219)" height="2" width="2" x="62" y="82" /><rect fill="rgb(77,91,223)" height="2" width="2" x="64" y="82" /><rect fill="rgb(77,95,244)" height="2" width="2" x="66" y="82" /><rect fill="rgb(77,96,255)" height="2" width="2" x="68" y="82" /><rect fill="rgb(74,96,255)" height="2" width="2" x="70" y="82" /><rect fill="rgb(24,24,24)" height="2" width="2" x="86" y="82" /><rect fill="rgb(23,23,23)" height="2" width="2" x="88" y="82" /><rect fill="rgb(27,27,27)" height="2" width="2" x="96" y="82" /><rect fill="rgb(23,23,23)" height="2" width="2" x="98" y="82" /><rect fill="rgb(24,24,24)" height="2" width="2" x="106" y="82" /><rect fill="rgb(23,23,23)" height="2" width="2" x="108" y="82" /><rect fill="rgb(23,23,23)" height="2" width="2" x="120" y="82" /><rect fill="rgb(20,20,20)" height="2" width="2" x="122" y="82" /><rect fill="rgb(32,32,32)" height="2" width="2" x="130" y="82" /><rect fill="rgb(23,23,23)" height="2" width="2" x="132" y="82" /><rect fill="rgb(29,29,29)" height="2" width="2" x="134" y="82" /><rect fill="rgb(29,29,29)" height="2" width="2" x="146" y="82" /><rect fill="rgb(23,23,23)" height="2" width="2" x="148" y="82" /><rect fill="rgb(27,27,27)" height="2" width="2" x="150" y="82" /><rect fill="rgb(25,25,25)" height="2" width="2" x="154" y="82" /><rect fill="rgb(23,23,23)" height="2" width="2" x="156" y="82" /><rect fill="rgb(26,26,26)" height="2" width="2" x="166" y="82" /><rect fill="rgb(25,25,25)" height="2" width="2" x="168" y="82" /><rect fill="rgb(151,26,255)" height="2" width="2" x="24" y="84" /><rect fill="rgb(149,26,255)" height="2" width="2" x="26" y="84" /><rect fill="rgb(149,26,255)" height="2" width="2" x="28" y="84" /><rect fill="rgb(149,29,255)" height="2" width="2" x="30" y="84" /><rect fill="rgb(80,94,255)" height="2" width="2" x="42" y="84" /><rect fill="rgb(71,87,254)" height="2" width="2" x="44" y="84" /><rect fill="rgb(68,89,255)" height="2" width="2" x="46" y="84" /><rect fill="rgb(68,88,255)" height="2" width="2" x="48" y="84" /><rect fill="rgb(29,29,29)" height="2" width="2" x="86" y="84" /><rect fill="rgb(24,24,24)" height="2" width="2" x="88" y="84" /><rect fill="rgb(30,30,30)" height="2" width="2" x="90" y="84" /><rect fill="rgb(25,25,25)" height="2" width="2" x="96" y="84" /><rect fill="rgb(25,25,25)" height="2" width="2" x="98" y="84" /><rect fill="rgb(25,25,25)" height="2" width="2" x="106" y="84" /><rect fill="rgb(24,24,24)" height="2" width="2" x="108" y="84" /><rect fill="rgb(23,23,23)" height="2" width="2" x="120" y="84" /><rect fill="rgb(50,50,50)" height="2" width="2" x="122" y="84" /><rect fill="rgb(27,27,27)" height="2" width="2" x="130" y="84" /><rect fill="rgb(23,23,23)" height="2" width="2" x="132" y="84" /><rect fill="rgb(22,22,22)" height="2" width="2" x="148" y="84" /><rect fill="rgb(26,26,26)" height="2" width="2" x="150" y="84" /><rect fill="rgb(26,26,26)" height="2" width="2" x="154" y="84" /><rect fill="rgb(23,23,23)" height="2" width="2" x="156" y="84" /><rect fill="rgb(30,30,30)" height="2" width="2" x="164" y="84" /><rect fill="rgb(22,22,22)" height="2" width="2" x="166" y="84" /><rect fill="rgb(25,25,25)" height="2" width="2" x="168" y="84" /><rect fill="rgb(154,32,255)" height="2" width="2" x="24" y="86" /><rect fill="rgb(148,27,255)" height="2" width="2" x="26" y="86" /><rect fill="rgb(148,27,252)" height="2" width="2" x="28" y="86" /><rect fill="rgb(149,26,253)" height="2" width="2" x="30" y="86" /><rect fill="rgb(143,34,235)" height="2" width="2" x="32" y="86" /><rect fill="rgb(76,94,255)" height="2" width="2" x="42" y="86" /><rect fill="rgb(72,90,252)" height="2" width="2" x="44" y="86" /><rect fill="rgb(69,91,252)" height="2" width="2" x="46" y="86" /><rect fill="rgb(77,92,255)" height="2" width="2" x="48" y="86" /><rect fill="rgb(24,24,24)" height="2" width="2" x="88" y="86" /><rect fill="rgb(26,26,26)" height="2" width="2" x="90" y="86" /><rect fill="rgb(24,24,24)" height="2" width="2" x="96" y="86" /><rect fill="rgb(29,29,29)" height="2" width="2" x="98" y="86" /><rect fill="rgb(24,24,24)" height="2" width="2" x="106" y="86" /><rect fill="rgb(24,24,24)" height="2" width="2" x="108" y="86" /><rect fill="rgb(24,24,24)" height="2" width="2" x="120" y="86" /><rect fill="rgb(54,54,54)" height="2" width="2" x="122" y="86" /><rect fill="rgb(27,27,27)" height="2" width="2" x="130" y="86" /><rect fill="rgb(24,24,24)" height="2" width="2" x="132" y="86" /><rect fill="rgb(23,23,23)" height="2" width="2" x="148" y="86" /><rect fill="rgb(25,25,25)" height="2" width="2" x="150" y="86" /><rect fill="rgb(26,26,26)" height="2" width="2" x="154" y="86" /><rect fill="rgb(24,24,24)" height="2" width="2" x="156" y="86" /><rect fill="rgb(24,24,24)" height="2" width="2" x="158" y="86" /><rect fill="rgb(24,24,24)" height="2" width="2" x="160" y="86" /><rect fill="rgb(24,24,24)" height="2" width="2" x="162" y="86" /><rect fill="rgb(24,24,24)" height="2" width="2" x="164" y="86" /><rect fill="rgb(26,26,26)" height="2" width="2" x="166" y="86" /><rect fill="rgb(149,26,251)" height="2" width="2" x="26" y="88" /><rect fill="rgb(145,28,255)" height="2" width="2" x="28" y="88" /><rect fill="rgb(146,28,252)" height="2" width="2" x="30" y="88" /><rect fill="rgb(154,31,255)" height="2" width="2" x="32" y="88" /><rect fill="rgb(76,95,255)" height="2" width="2" x="42" y="88" /><rect fill="rgb(74,88,254)" height="2" width="2" x="44" y="88" /><rect fill="rgb(69,89,255)" height="2" width="2" x="46" y="88" /><rect fill="rgb(71,89,255)" height="2" width="2" x="48" y="88" /><rect fill="rgb(28,28,28)" height="2" width="2" x="88" y="88" /><rect fill="rgb(24,24,24)" height="2" width="2" x="90" y="88" /><rect fill="rgb(27,27,27)" height="2" width="2" x="94" y="88" /><rect fill="rgb(25,25,25)" height="2" width="2" x="96" y="88" /><rect fill="rgb(25,25,25)" height="2" width="2" x="106" y="88" /><rect fill="rgb(24,24,24)" height="2" width="2" x="108" y="88" /><rect fill="rgb(23,23,23)" height="2" width="2" x="120" y="88" /><rect fill="rgb(21,21,21)" height="2" width="2" x="122" y="88" /><rect fill="rgb(34,34,34)" height="2" width="2" x="130" y="88" /><rect fill="rgb(24,24,24)" height="2" width="2" x="132" y="88" /><rect fill="rgb(31,31,31)" height="2" width="2" x="134" y="88" /><rect fill="rgb(31,31,31)" height="2" width="2" x="146" y="88" /><rect fill="rgb(24,24,24)" height="2" width="2" x="148" y="88" /><rect fill="rgb(26,26,26)" height="2" width="2" x="150" y="88" /><rect fill="rgb(26,26,26)" height="2" width="2" x="154" y="88" /><rect fill="rgb(23,23,23)" height="2" width="2" x="156" y="88" /><rect fill="rgb(25,25,25)" height="2" width="2" x="158" y="88" /><rect fill="rgb(24,24,24)" height="2" width="2" x="160" y="88" /><rect fill="rgb(26,26,26)" height="2" width="2" x="162" y="88" /><rect fill="rgb(24,24,24)" height="2" width="2" x="164" y="88" /><rect fill="rgb(157,28,255)" height="2" width="2" x="26" y="90" /><rect fill="rgb(147,28,254)" height="2" width="2" x="28" y="90" /><rect fill="rgb(146,28,253)" height="2" width="2" x="30" y="90" /><rect fill="rgb(148,27,255)" height="2" width="2" x="32" y="90" /><rect fill="rgb(78,91,240)" height="2" width="2" x="42" y="90" /><rect fill="rgb(72,88,253)" height="2" width="2" x="44" y="90" /><rect fill="rgb(72,88,253)" height="2" width="2" x="46" y="90" /><rect fill="rgb(71,88,255)" height="2" width="2" x="48" y="90" /><rect fill="rgb(70,90,253)" height="2" width="2" x="50" y="90" /><rect fill="rgb(78,94,245)" height="2" width="2" x="52" y="90" /><rect fill="rgb(23,23,23)" height="2" width="2" x="90" y="90" /><rect fill="rgb(32,32,32)" height="2" width="2" x="92" y="90" /><rect fill="rgb(24,24,24)" height="2" width="2" x="94" y="90" /><rect fill="rgb(25,25,25)" height="2" width="2" x="96" y="90" /><rect fill="rgb(25,25,25)" height="2" width="2" x="106" y="90" /><rect fill="rgb(24,24,24)" height="2" width="2" x="108" y="90" /><rect fill="rgb(23,23,23)" height="2" width="2" x="120" y="90" /><rect fill="rgb(23,23,23)" height="2" width="2" x="122" y="90" /><rect fill="rgb(23,23,23)" height="2" width="2" x="132" y="90" /><rect fill="rgb(24,24,24)" height="2" width="2" x="134" y="90" /><rect fill="rgb(24,24,24)" height="2" width="2" x="146" y="90" /><rect fill="rgb(24,24,24)" height="2" width="2" x="148" y="90" /><rect fill="rgb(25,25,25)" height="2" width="2" x="154" y="90" /><rect fill="rgb(23,23,23)" height="2" width="2" x="156" y="90" /><rect fill="rgb(23,23,23)" height="2" width="2" x="164" y="90" /><rect fill="rgb(24,24,24)" height="2" width="2" x="166" y="90" /><rect fill="rgb(141,38,237)" height="2" width="2" x="26" y="92" /><rect fill="rgb(150,28,249)" height="2" width="2" x="28" y="92" /><rect fill="rgb(146,26,255)" height="2" width="2" x="30" y="92" /><rect fill="rgb(145,28,250)" height="2" width="2" x="32" y="92" /><rect fill="rgb(144,35,242)" height="2" width="2" x="34" y="92" /><rect fill="rgb(67,90,255)" height="2" width="2" x="44" y="92" /><rect fill="rgb(69,89,254)" height="2" width="2" x="46" y="92" /><rect fill="rgb(68,90,252)" height="2" width="2" x="48" y="92" /><rect fill="rgb(71,88,255)" height="2" width="2" x="50" y="92" /><rect fill="rgb(69,88,253)" height="2" width="2" x="52" y="92" /><rect fill="rgb(67,91,254)" height="2" width="2" x="54" y="92" /><rect fill="rgb(79,95,255)" height="2" width="2" x="56" y="92" /><rect fill="rgb(79,97,236)" height="2" width="2" x="58" y="92" /><rect fill="rgb(24,24,24)" height="2" width="2" x="90" y="92" /><rect fill="rgb(23,23,23)" height="2" width="2" x="92" y="92" /><rect fill="rgb(23,23,23)" height="2" width="2" x="94" y="92" /><rect fill="rgb(32,32,32)" height="2" width="2" x="96" y="92" /><rect fill="rgb(24,24,24)" height="2" width="2" x="106" y="92" /><rect fill="rgb(23,23,23)" height="2" width="2" x="108" y="92" /><rect fill="rgb(23,23,23)" height="2" width="2" x="120" y="92" /><rect fill="rgb(23,23,23)" height="2" width="2" x="122" y="92" /><rect fill="rgb(29,29,29)" height="2" width="2" x="132" y="92" /><rect fill="rgb(23,23,23)" height="2" width="2" x="134" y="92" /><rect fill="rgb(23,23,23)" height="2" width="2" x="136" y="92" /><rect fill="rgb(23,23,23)" height="2" width="2" x="138" y="92" /><rect fill="rgb(48,48,48)" height="2" width="2" x="140" y="92" /><rect fill="rgb(24,24,24)" height="2" width="2" x="142" y="92" /><rect fill="rgb(23,23,23)" height="2" width="2" x="144" y="92" /><rect fill="rgb(23,23,23)" height="2" width="2" x="146" y="92" /><rect fill="rgb(28,28,28)" height="2" width="2" x="148" y="92" /><rect fill="rgb(25,25,25)" height="2" width="2" x="154" y="92" /><rect fill="rgb(23,23,23)" height="2" width="2" x="156" y="92" /><rect fill="rgb(24,24,24)" height="2" width="2" x="164" y="92" /><rect fill="rgb(23,23,23)" height="2" width="2" x="166" y="92" /><rect fill="rgb(148,25,250)" height="2" width="2" x="28" y="94" /><rect fill="rgb(151,25,255)" height="2" width="2" x="30" y="94" /><rect fill="rgb(147,28,253)" height="2" width="2" x="32" y="94" /><rect fill="rgb(154,29,255)" height="2" width="2" x="34" y="94" /><rect fill="rgb(91,97,221)" height="2" width="2" x="44" y="94" /><rect fill="rgb(72,87,255)" height="2" width="2" x="46" y="94" /><rect fill="rgb(70,90,253)" height="2" width="2" x="48" y="94" /><rect fill="rgb(72,87,254)" height="2" width="2" x="50" y="94" /><rect fill="rgb(71,89,253)" height="2" width="2" x="52" y="94" /><rect fill="rgb(71,87,255)" height="2" width="2" x="54" y="94" /><rect fill="rgb(71,89,254)" height="2" width="2" x="56" y="94" /><rect fill="rgb(73,89,251)" height="2" width="2" x="58" y="94" /><rect fill="rgb(73,92,255)" height="2" width="2" x="60" y="94" /><rect fill="rgb(72,93,239)" height="2" width="2" x="62" y="94" /><rect fill="rgb(30,30,30)" height="2" width="2" x="90" y="94" /><rect fill="rgb(24,24,24)" height="2" width="2" x="92" y="94" /><rect fill="rgb(23,23,23)" height="2" width="2" x="94" y="94" /><rect fill="rgb(24,24,24)" height="2" width="2" x="106" y="94" /><rect fill="rgb(24,24,24)" height="2" width="2" x="108" y="94" /><rect fill="rgb(24,24,24)" height="2" width="2" x="120" y="94" /><rect fill="rgb(43,43,43)" height="2" width="2" x="122" y="94" /><rect fill="rgb(25,25,25)" height="2" width="2" x="136" y="94" /><rect fill="rgb(24,24,24)" height="2" width="2" x="138" y="94" /><rect fill="rgb(24,24,24)" height="2" width="2" x="140" y="94" /><rect fill="rgb(25,25,25)" height="2" width="2" x="142" y="94" /><rect fill="rgb(26,26,26)" height="2" width="2" x="144" y="94" /><rect fill="rgb(23,23,23)" height="2" width="2" x="154" y="94" /><rect fill="rgb(23,23,23)" height="2" width="2" x="156" y="94" /><rect fill="rgb(23,23,23)" height="2" width="2" x="166" y="94" /><rect fill="rgb(24,24,24)" height="2" width="2" x="168" y="94" /><rect fill="rgb(158,29,255)" height="2" width="2" x="28" y="96" /><rect fill="rgb(150,27,250)" height="2" width="2" x="30" y="96" /><rect fill="rgb(146,26,255)" height="2" width="2" x="32" y="96" /><rect fill="rgb(145,27,252)" height="2" width="2" x="34" y="96" /><rect fill="rgb(69,91,247)" height="2" width="2" x="48" y="96" /><rect fill="rgb(72,90,255)" height="2" width="2" x="50" y="96" /><rect fill="rgb(69,88,253)" height="2" width="2" x="52" y="96" /><rect fill="rgb(71,89,255)" height="2" width="2" x="54" y="96" /><rect fill="rgb(73,89,252)" height="2" width="2" x="56" y="96" /><rect fill="rgb(69,90,254)" height="2" width="2" x="58" y="96" /><rect fill="rgb(71,90,253)" height="2" width="2" x="60" y="96" /><rect fill="rgb(72,89,253)" height="2" width="2" x="62" y="96" /><rect fill="rgb(68,89,253)" height="2" width="2" x="64" y="96" /><rect fill="rgb(78,95,250)" height="2" width="2" x="66" y="96" /><rect fill="rgb(143,39,229)" height="2" width="2" x="28" y="98" /><rect fill="rgb(147,26,255)" height="2" width="2" x="30" y="98" /><rect fill="rgb(147,28,253)" height="2" width="2" x="32" y="98" /><rect fill="rgb(146,28,251)" height="2" width="2" x="34" y="98" /><rect fill="rgb(149,33,239)" height="2" width="2" x="36" y="98" /><rect fill="rgb(139,50,227)" height="2" width="2" x="44" y="98" /><rect fill="rgb(79,93,236)" height="2" width="2" x="52" y="98" /><rect fill="rgb(80,94,255)" height="2" width="2" x="54" y="98" /><rect fill="rgb(69,91,250)" height="2" width="2" x="56" y="98" /><rect fill="rgb(70,88,255)" height="2" width="2" x="58" y="98" /><rect fill="rgb(70,90,255)" height="2" width="2" x="60" y="98" /><rect fill="rgb(70,89,255)" height="2" width="2" x="62" y="98" /><rect fill="rgb(71,89,255)" height="2" width="2" x="64" y="98" /><rect fill="rgb(70,90,250)" height="2" width="2" x="66" y="98" /><rect fill="rgb(82,95,255)" height="2" width="2" x="68" y="98" /><rect fill="rgb(153,27,255)" height="2" width="2" x="30" y="100" /><rect fill="rgb(145,28,255)" height="2" width="2" x="32" y="100" /><rect fill="rgb(146,27,253)" height="2" width="2" x="34" y="100" /><rect fill="rgb(157,26,255)" height="2" width="2" x="36" y="100" /><rect fill="rgb(153,26,247)" height="2" width="2" x="44" y="100" /><rect fill="rgb(148,33,255)" height="2" width="2" x="46" y="100" /><rect fill="rgb(76,93,238)" height="2" width="2" x="58" y="100" /><rect fill="rgb(73,92,255)" height="2" width="2" x="60" y="100" /><rect fill="rgb(71,88,252)" height="2" width="2" x="62" y="100" /><rect fill="rgb(71,90,251)" height="2" width="2" x="64" y="100" /><rect fill="rgb(72,89,255)" height="2" width="2" x="66" y="100" /><rect fill="rgb(66,91,248)" height="2" width="2" x="68" y="100" /><rect fill="rgb(82,95,228)" height="2" width="2" x="70" y="100" /><rect fill="rgb(151,30,245)" height="2" width="2" x="30" y="102" /><rect fill="rgb(146,28,253)" height="2" width="2" x="32" y="102" /><rect fill="rgb(147,27,255)" height="2" width="2" x="34" y="102" /><rect fill="rgb(146,29,251)" height="2" width="2" x="36" y="102" /><rect fill="rgb(138,35,225)" height="2" width="2" x="38" y="102" /><rect fill="rgb(152,32,248)" height="2" width="2" x="42" y="102" /><rect fill="rgb(146,28,255)" height="2" width="2" x="44" y="102" /><rect fill="rgb(149,28,247)" height="2" width="2" x="46" y="102" /><rect fill="rgb(158,22,255)" height="2" width="2" x="48" y="102" /><rect fill="rgb(79,86,247)" height="2" width="2" x="62" y="102" /><rect fill="rgb(68,90,253)" height="2" width="2" x="64" y="102" /><rect fill="rgb(72,90,254)" height="2" width="2" x="66" y="102" /><rect fill="rgb(70,90,254)" height="2" width="2" x="68" y="102" /><rect fill="rgb(77,94,255)" height="2" width="2" x="70" y="102" /><rect fill="rgb(27,27,27)" height="2" width="2" x="88" y="102" /><rect fill="rgb(25,25,25)" height="2" width="2" x="90" y="102" /><rect fill="rgb(26,26,26)" height="2" width="2" x="92" y="102" /><rect fill="rgb(27,27,27)" height="2" width="2" x="106" y="102" /><rect fill="rgb(27,27,27)" height="2" width="2" x="108" y="102" /><rect fill="rgb(26,26,26)" height="2" width="2" x="110" y="102" /><rect fill="rgb(28,28,28)" height="2" width="2" x="112" y="102" /><rect fill="rgb(27,27,27)" height="2" width="2" x="114" y="102" /><rect fill="rgb(27,27,27)" height="2" width="2" x="124" y="102" /><rect fill="rgb(23,23,23)" height="2" width="2" x="126" y="102" /><rect fill="rgb(24,24,24)" height="2" width="2" x="136" y="102" /><rect fill="rgb(23,23,23)" height="2" width="2" x="138" y="102" /><rect fill="rgb(30,30,30)" height="2" width="2" x="144" y="102" /><rect fill="rgb(26,26,26)" height="2" width="2" x="146" y="102" /><rect fill="rgb(26,26,26)" height="2" width="2" x="148" y="102" /><rect fill="rgb(25,25,25)" height="2" width="2" x="150" y="102" /><rect fill="rgb(25,25,25)" height="2" width="2" x="152" y="102" /><rect fill="rgb(26,26,26)" height="2" width="2" x="154" y="102" /><rect fill="rgb(25,25,25)" height="2" width="2" x="156" y="102" /><rect fill="rgb(22,22,22)" height="2" width="2" x="168" y="102" /><rect fill="rgb(25,25,25)" height="2" width="2" x="170" y="102" /><rect fill="rgb(148,26,255)" height="2" width="2" x="32" y="104" /><rect fill="rgb(148,27,255)" height="2" width="2" x="34" y="104" /><rect fill="rgb(148,27,255)" height="2" width="2" x="36" y="104" /><rect fill="rgb(154,33,255)" height="2" width="2" x="38" y="104" /><rect fill="rgb(151,25,255)" height="2" width="2" x="42" y="104" /><rect fill="rgb(150,27,254)" height="2" width="2" x="44" y="104" /><rect fill="rgb(144,29,252)" height="2" width="2" x="46" y="104" /><rect fill="rgb(154,32,255)" height="2" width="2" x="48" y="104" /><rect fill="rgb(75,95,255)" height="2" width="2" x="64" y="104" /><rect fill="rgb(71,90,255)" height="2" width="2" x="66" y="104" /><rect fill="rgb(71,90,255)" height="2" width="2" x="68" y="104" /><rect fill="rgb(72,94,255)" height="2" width="2" x="70" y="104" /><rect fill="rgb(23,23,23)" height="2" width="2" x="86" y="104" /><rect fill="rgb(25,25,25)" height="2" width="2" x="88" y="104" /><rect fill="rgb(24,24,24)" height="2" width="2" x="90" y="104" /><rect fill="rgb(25,25,25)" height="2" width="2" x="92" y="104" /><rect fill="rgb(24,24,24)" height="2" width="2" x="94" y="104" /><rect fill="rgb(25,25,25)" height="2" width="2" x="104" y="104" /><rect fill="rgb(23,23,23)" height="2" width="2" x="106" y="104" /><rect fill="rgb(25,25,25)" height="2" width="2" x="108" y="104" /><rect fill="rgb(25,25,25)" height="2" width="2" x="110" y="104" /><rect fill="rgb(25,25,25)" height="2" width="2" x="112" y="104" /><rect fill="rgb(23,23,23)" height="2" width="2" x="114" y="104" /><rect fill="rgb(25,25,25)" height="2" width="2" x="116" y="104" /><rect fill="rgb(27,27,27)" height="2" width="2" x="124" y="104" /><rect fill="rgb(23,23,23)" height="2" width="2" x="126" y="104" /><rect fill="rgb(26,26,26)" height="2" width="2" x="136" y="104" /><rect fill="rgb(23,23,23)" height="2" width="2" x="138" y="104" /><rect fill="rgb(29,29,29)" height="2" width="2" x="144" y="104" /><rect fill="rgb(26,26,26)" height="2" width="2" x="146" y="104" /><rect fill="rgb(26,26,26)" height="2" width="2" x="148" y="104" /><rect fill="rgb(25,25,25)" height="2" width="2" x="150" y="104" /><rect fill="rgb(25,25,25)" height="2" width="2" x="152" y="104" /><rect fill="rgb(23,23,23)" height="2" width="2" x="154" y="104" /><rect fill="rgb(23,23,23)" height="2" width="2" x="156" y="104" /><rect fill="rgb(26,26,26)" height="2" width="2" x="166" y="104" /><rect fill="rgb(24,24,24)" height="2" width="2" x="168" y="104" /><rect fill="rgb(23,23,23)" height="2" width="2" x="170" y="104" /><rect fill="rgb(24,24,24)" height="2" width="2" x="172" y="104" /><rect fill="rgb(155,29,255)" height="2" width="2" x="32" y="106" /><rect fill="rgb(148,27,255)" height="2" width="2" x="34" y="106" /><rect fill="rgb(148,27,255)" height="2" width="2" x="36" y="106" /><rect fill="rgb(147,28,255)" height="2" width="2" x="38" y="106" /><rect fill="rgb(141,31,240)" height="2" width="2" x="40" y="106" /><rect fill="rgb(148,26,251)" height="2" width="2" x="42" y="106" /><rect fill="rgb(145,27,255)" height="2" width="2" x="44" y="106" /><rect fill="rgb(151,24,255)" height="2" width="2" x="46" y="106" /><rect fill="rgb(144,38,228)" height="2" width="2" x="48" y="106" /><rect fill="rgb(75,93,253)" height="2" width="2" x="64" y="106" /><rect fill="rgb(71,90,254)" height="2" width="2" x="66" y="106" /><rect fill="rgb(71,90,255)" height="2" width="2" x="68" y="106" /><rect fill="rgb(69,92,255)" height="2" width="2" x="70" y="106" /><rect fill="rgb(29,29,27)" height="2" width="2" x="84" y="106" /><rect fill="rgb(25,25,24)" height="2" width="2" x="86" y="106" /><rect fill="rgb(27,27,27)" height="2" width="2" x="94" y="106" /><rect fill="rgb(28,28,28)" height="2" width="2" x="96" y="106" /><rect fill="rgb(25,25,25)" height="2" width="2" x="102" y="106" /><rect fill="rgb(23,23,23)" height="2" width="2" x="104" y="106" /><rect fill="rgb(24,24,24)" height="2" width="2" x="106" y="106" /><rect fill="rgb(26,26,26)" height="2" width="2" x="114" y="106" /><rect fill="rgb(24,24,24)" height="2" width="2" x="116" y="106" /><rect fill="rgb(26,26,26)" height="2" width="2" x="118" y="106" /><rect fill="rgb(28,28,28)" height="2" width="2" x="124" y="106" /><rect fill="rgb(24,24,24)" height="2" width="2" x="126" y="106" /><rect fill="rgb(26,26,26)" height="2" width="2" x="136" y="106" /><rect fill="rgb(23,23,23)" height="2" width="2" x="138" y="106" /><rect fill="rgb(23,23,23)" height="2" width="2" x="154" y="106" /><rect fill="rgb(25,25,25)" height="2" width="2" x="156" y="106" /><rect fill="rgb(24,24,24)" height="2" width="2" x="166" y="106" /><rect fill="rgb(23,23,23)" height="2" width="2" x="168" y="106" /><rect fill="rgb(25,25,25)" height="2" width="2" x="170" y="106" /><rect fill="rgb(24,24,24)" height="2" width="2" x="172" y="106" /><rect fill="rgb(145,36,243)" height="2" width="2" x="32" y="108" /><rect fill="rgb(148,28,255)" height="2" width="2" x="34" y="108" /><rect fill="rgb(147,27,255)" height="2" width="2" x="36" y="108" /><rect fill="rgb(149,26,254)" height="2" width="2" x="38" y="108" /><rect fill="rgb(151,23,253)" height="2" width="2" x="40" y="108" /><rect fill="rgb(146,29,250)" height="2" width="2" x="42" y="108" /><rect fill="rgb(150,26,253)" height="2" width="2" x="44" y="108" /><rect fill="rgb(152,28,254)" height="2" width="2" x="46" y="108" /><rect fill="rgb(77,96,255)" height="2" width="2" x="64" y="108" /><rect fill="rgb(71,90,255)" height="2" width="2" x="66" y="108" /><rect fill="rgb(71,90,255)" height="2" width="2" x="68" y="108" /><rect fill="rgb(72,94,255)" height="2" width="2" x="70" y="108" /><rect fill="rgb(28,28,27)" height="2" width="2" x="84" y="108" /><rect fill="rgb(23,23,23)" height="2" width="2" x="86" y="108" /><rect fill="rgb(23,23,23)" height="2" width="2" x="102" y="108" /><rect fill="rgb(25,25,25)" height="2" width="2" x="104" y="108" /><rect fill="rgb(28,28,28)" height="2" width="2" x="116" y="108" /><rect fill="rgb(23,23,23)" height="2" width="2" x="118" y="108" /><rect fill="rgb(28,28,28)" height="2" width="2" x="124" y="108" /><rect fill="rgb(24,24,24)" height="2" width="2" x="126" y="108" /><rect fill="rgb(26,26,26)" height="2" width="2" x="136" y="108" /><rect fill="rgb(23,23,23)" height="2" width="2" x="138" y="108" /><rect fill="rgb(24,24,24)" height="2" width="2" x="152" y="108" /><rect fill="rgb(26,26,26)" height="2" width="2" x="154" y="108" /><rect fill="rgb(23,23,23)" height="2" width="2" x="166" y="108" /><rect fill="rgb(28,28,28)" height="2" width="2" x="168" y="108" /><rect fill="rgb(23,23,23)" height="2" width="2" x="170" y="108" /><rect fill="rgb(23,23,23)" height="2" width="2" x="172" y="108" /><rect fill="rgb(149,25,253)" height="2" width="2" x="34" y="110" /><rect fill="rgb(143,30,251)" height="2" width="2" x="36" y="110" /><rect fill="rgb(146,27,255)" height="2" width="2" x="38" y="110" /><rect fill="rgb(146,27,255)" height="2" width="2" x="40" y="110" /><rect fill="rgb(146,27,255)" height="2" width="2" x="42" y="110" /><rect fill="rgb(146,28,253)" height="2" width="2" x="44" y="110" /><rect fill="rgb(150,32,249)" height="2" width="2" x="46" y="110" /><rect fill="rgb(79,93,236)" height="2" width="2" x="62" y="110" /><rect fill="rgb(70,89,255)" height="2" width="2" x="64" y="110" /><rect fill="rgb(70,89,254)" height="2" width="2" x="66" y="110" /><rect fill="rgb(70,90,251)" height="2" width="2" x="68" y="110" /><rect fill="rgb(75,96,255)" height="2" width="2" x="70" y="110" /><rect fill="rgb(23,23,23)" height="2" width="2" x="86" y="110" /><rect fill="rgb(23,23,23)" height="2" width="2" x="88" y="110" /><rect fill="rgb(26,26,26)" height="2" width="2" x="90" y="110" /><rect fill="rgb(32,32,32)" height="2" width="2" x="92" y="110" /><rect fill="rgb(26,26,26)" height="2" width="2" x="100" y="110" /><rect fill="rgb(23,23,23)" height="2" width="2" x="102" y="110" /><rect fill="rgb(23,23,23)" height="2" width="2" x="118" y="110" /><rect fill="rgb(28,28,28)" height="2" width="2" x="120" y="110" /><rect fill="rgb(28,28,28)" height="2" width="2" x="124" y="110" /><rect fill="rgb(23,23,23)" height="2" width="2" x="126" y="110" /><rect fill="rgb(24,24,24)" height="2" width="2" x="136" y="110" /><rect fill="rgb(23,23,23)" height="2" width="2" x="138" y="110" /><rect fill="rgb(25,25,25)" height="2" width="2" x="150" y="110" /><rect fill="rgb(23,23,23)" height="2" width="2" x="152" y="110" /><rect fill="rgb(26,26,26)" height="2" width="2" x="164" y="110" /><rect fill="rgb(22,22,22)" height="2" width="2" x="166" y="110" /><rect fill="rgb(23,23,23)" height="2" width="2" x="172" y="110" /><rect fill="rgb(24,24,24)" height="2" width="2" x="174" y="110" /><rect fill="rgb(154,29,255)" height="2" width="2" x="34" y="112" /><rect fill="rgb(147,27,255)" height="2" width="2" x="36" y="112" /><rect fill="rgb(147,27,255)" height="2" width="2" x="38" y="112" /><rect fill="rgb(146,27,255)" height="2" width="2" x="40" y="112" /><rect fill="rgb(146,27,255)" height="2" width="2" x="42" y="112" /><rect fill="rgb(144,29,251)" height="2" width="2" x="44" y="112" /><rect fill="rgb(71,87,245)" height="2" width="2" x="52" y="112" /><rect fill="rgb(73,89,244)" height="2" width="2" x="54" y="112" /><rect fill="rgb(74,88,244)" height="2" width="2" x="56" y="112" /><rect fill="rgb(72,87,244)" height="2" width="2" x="58" y="112" /><rect fill="rgb(76,96,255)" height="2" width="2" x="60" y="112" /><rect fill="rgb(69,89,253)" height="2" width="2" x="62" y="112" /><rect fill="rgb(71,89,255)" height="2" width="2" x="64" y="112" /><rect fill="rgb(70,90,253)" height="2" width="2" x="66" y="112" /><rect fill="rgb(70,87,255)" height="2" width="2" x="68" y="112" /><rect fill="rgb(79,91,238)" height="2" width="2" x="70" y="112" /><rect fill="rgb(27,27,27)" height="2" width="2" x="88" y="112" /><rect fill="rgb(26,26,26)" height="2" width="2" x="90" y="112" /><rect fill="rgb(24,24,24)" height="2" width="2" x="92" y="112" /><rect fill="rgb(23,23,23)" height="2" width="2" x="94" y="112" /><rect fill="rgb(25,25,25)" height="2" width="2" x="96" y="112" /><rect fill="rgb(24,24,24)" height="2" width="2" x="100" y="112" /><rect fill="rgb(24,24,24)" height="2" width="2" x="102" y="112" /><rect fill="rgb(23,23,23)" height="2" width="2" x="118" y="112" /><rect fill="rgb(34,34,34)" height="2" width="2" x="120" y="112" /><rect fill="rgb(28,28,28)" height="2" width="2" x="124" y="112" /><rect fill="rgb(23,23,23)" height="2" width="2" x="126" y="112" /><rect fill="rgb(24,24,24)" height="2" width="2" x="136" y="112" /><rect fill="rgb(23,23,23)" height="2" width="2" x="138" y="112" /><rect fill="rgb(29,29,29)" height="2" width="2" x="148" y="112" /><rect fill="rgb(23,23,23)" height="2" width="2" x="150" y="112" /><rect fill="rgb(28,28,28)" height="2" width="2" x="152" y="112" /><rect fill="rgb(24,24,24)" height="2" width="2" x="164" y="112" /><rect fill="rgb(25,25,25)" height="2" width="2" x="166" y="112" /><rect fill="rgb(26,26,26)" height="2" width="2" x="172" y="112" /><rect fill="rgb(24,24,24)" height="2" width="2" x="174" y="112" /><rect fill="rgb(147,43,230)" height="2" width="2" x="34" y="114" /><rect fill="rgb(144,27,255)" height="2" width="2" x="36" y="114" /><rect fill="rgb(146,28,253)" height="2" width="2" x="38" y="114" /><rect fill="rgb(146,27,255)" height="2" width="2" x="40" y="114" /><rect fill="rgb(146,27,255)" height="2" width="2" x="42" y="114" /><rect fill="rgb(154,26,255)" height="2" width="2" x="44" y="114" /><rect fill="rgb(76,91,240)" height="2" width="2" x="50" y="114" /><rect fill="rgb(71,89,253)" height="2" width="2" x="52" y="114" /><rect fill="rgb(72,88,253)" height="2" width="2" x="54" y="114" /><rect fill="rgb(72,88,253)" height="2" width="2" x="56" y="114" /><rect fill="rgb(73,88,253)" height="2" width="2" x="58" y="114" /><rect fill="rgb(73,89,255)" height="2" width="2" x="60" y="114" /><rect fill="rgb(71,89,255)" height="2" width="2" x="62" y="114" /><rect fill="rgb(71,90,255)" height="2" width="2" x="64" y="114" /><rect fill="rgb(71,90,254)" height="2" width="2" x="66" y="114" /><rect fill="rgb(73,94,255)" height="2" width="2" x="68" y="114" /><rect fill="rgb(25,25,25)" height="2" width="2" x="94" y="114" /><rect fill="rgb(24,24,24)" height="2" width="2" x="96" y="114" /><rect fill="rgb(35,35,35)" height="2" width="2" x="100" y="114" /><rect fill="rgb(23,23,23)" height="2" width="2" x="102" y="114" /><rect fill="rgb(31,31,31)" height="2" width="2" x="104" y="114" /><rect fill="rgb(29,29,29)" height="2" width="2" x="116" y="114" /><rect fill="rgb(23,23,23)" height="2" width="2" x="118" y="114" /><rect fill="rgb(25,25,25)" height="2" width="2" x="120" y="114" /><rect fill="rgb(28,28,28)" height="2" width="2" x="124" y="114" /><rect fill="rgb(23,23,23)" height="2" width="2" x="126" y="114" /><rect fill="rgb(24,24,24)" height="2" width="2" x="136" y="114" /><rect fill="rgb(23,23,23)" height="2" width="2" x="138" y="114" /><rect fill="rgb(23,23,23)" height="2" width="2" x="148" y="114" /><rect fill="rgb(27,27,27)" height="2" width="2" x="150" y="114" /><rect fill="rgb(24,24,24)" height="2" width="2" x="164" y="114" /><rect fill="rgb(25,25,25)" height="2" width="2" x="166" y="114" /><rect fill="rgb(28,28,28)" height="2" width="2" x="168" y="114" /><rect fill="rgb(28,28,28)" height="2" width="2" x="170" y="114" /><rect fill="rgb(24,24,24)" height="2" width="2" x="172" y="114" /><rect fill="rgb(23,23,23)" height="2" width="2" x="174" y="114" /><rect fill="rgb(30,30,30)" height="2" width="2" x="176" y="114" /><rect fill="rgb(151,29,254)" height="2" width="2" x="36" y="116" /><rect fill="rgb(141,31,252)" height="2" width="2" x="38" y="116" /><rect fill="rgb(152,26,248)" height="2" width="2" x="40" y="116" /><rect fill="rgb(142,31,249)" height="2" width="2" x="42" y="116" /><rect fill="rgb(149,38,243)" height="2" width="2" x="44" y="116" /><rect fill="rgb(76,93,255)" height="2" width="2" x="50" y="116" /><rect fill="rgb(69,90,254)" height="2" width="2" x="52" y="116" /><rect fill="rgb(70,90,255)" height="2" width="2" x="54" y="116" /><rect fill="rgb(70,90,255)" height="2" width="2" x="56" y="116" /><rect fill="rgb(72,90,251)" height="2" width="2" x="58" y="116" /><rect fill="rgb(72,91,247)" height="2" width="2" x="60" y="116" /><rect fill="rgb(71,90,253)" height="2" width="2" x="62" y="116" /><rect fill="rgb(72,88,250)" height="2" width="2" x="64" y="116" /><rect fill="rgb(67,94,255)" height="2" width="2" x="66" y="116" /><rect fill="rgb(24,24,22)" height="2" width="2" x="84" y="116" /><rect fill="rgb(30,30,29)" height="2" width="2" x="86" y="116" /><rect fill="rgb(24,24,24)" height="2" width="2" x="94" y="116" /><rect fill="rgb(24,24,24)" height="2" width="2" x="96" y="116" /><rect fill="rgb(23,23,23)" height="2" width="2" x="102" y="116" /><rect fill="rgb(25,25,25)" height="2" width="2" x="104" y="116" /><rect fill="rgb(24,24,24)" height="2" width="2" x="116" y="116" /><rect fill="rgb(24,24,24)" height="2" width="2" x="118" y="116" /><rect fill="rgb(24,24,24)" height="2" width="2" x="124" y="116" /><rect fill="rgb(23,23,23)" height="2" width="2" x="126" y="116" /><rect fill="rgb(25,25,25)" height="2" width="2" x="136" y="116" /><rect fill="rgb(24,24,24)" height="2" width="2" x="138" y="116" /><rect fill="rgb(25,25,25)" height="2" width="2" x="146" y="116" /><rect fill="rgb(24,24,24)" height="2" width="2" x="148" y="116" /><rect fill="rgb(25,25,25)" height="2" width="2" x="162" y="116" /><rect fill="rgb(23,23,23)" height="2" width="2" x="164" y="116" /><rect fill="rgb(24,24,24)" height="2" width="2" x="166" y="116" /><rect fill="rgb(24,24,24)" height="2" width="2" x="168" y="116" /><rect fill="rgb(24,24,24)" height="2" width="2" x="170" y="116" /><rect fill="rgb(24,24,24)" height="2" width="2" x="172" y="116" /><rect fill="rgb(23,23,23)" height="2" width="2" x="174" y="116" /><rect fill="rgb(25,25,25)" height="2" width="2" x="176" y="116" /><rect fill="rgb(145,32,247)" height="2" width="2" x="36" y="118" /><rect fill="rgb(148,25,253)" height="2" width="2" x="38" y="118" /><rect fill="rgb(144,27,255)" height="2" width="2" x="40" y="118" /><rect fill="rgb(153,21,255)" height="2" width="2" x="42" y="118" /><rect fill="rgb(70,89,255)" height="2" width="2" x="50" y="118" /><rect fill="rgb(71,90,255)" height="2" width="2" x="52" y="118" /><rect fill="rgb(71,90,255)" height="2" width="2" x="54" y="118" /><rect fill="rgb(71,90,255)" height="2" width="2" x="56" y="118" /><rect fill="rgb(67,93,255)" height="2" width="2" x="58" y="118" /><rect fill="rgb(70,92,255)" height="2" width="2" x="60" y="118" /><rect fill="rgb(74,95,255)" height="2" width="2" x="62" y="118" /><rect fill="rgb(73,93,245)" height="2" width="2" x="64" y="118" /><rect fill="rgb(28,28,26)" height="2" width="2" x="84" y="118" /><rect fill="rgb(23,23,22)" height="2" width="2" x="86" y="118" /><rect fill="rgb(25,25,25)" height="2" width="2" x="88" y="118" /><rect fill="rgb(23,23,23)" height="2" width="2" x="94" y="118" /><rect fill="rgb(24,24,24)" height="2" width="2" x="96" y="118" /><rect fill="rgb(23,23,23)" height="2" width="2" x="102" y="118" /><rect fill="rgb(24,24,24)" height="2" width="2" x="104" y="118" /><rect fill="rgb(24,24,24)" height="2" width="2" x="106" y="118" /><rect fill="rgb(31,31,31)" height="2" width="2" x="108" y="118" /><rect fill="rgb(29,29,29)" height="2" width="2" x="112" y="118" /><rect fill="rgb(24,24,24)" height="2" width="2" x="114" y="118" /><rect fill="rgb(22,22,22)" height="2" width="2" x="116" y="118" /><rect fill="rgb(25,25,25)" height="2" width="2" x="118" y="118" /><rect fill="rgb(24,24,24)" height="2" width="2" x="126" y="118" /><rect fill="rgb(23,23,23)" height="2" width="2" x="128" y="118" /><rect fill="rgb(28,28,28)" height="2" width="2" x="134" y="118" /><rect fill="rgb(23,23,23)" height="2" width="2" x="136" y="118" /><rect fill="rgb(25,25,25)" height="2" width="2" x="138" y="118" /><rect fill="rgb(24,24,24)" height="2" width="2" x="144" y="118" /><rect fill="rgb(24,24,24)" height="2" width="2" x="146" y="118" /><rect fill="rgb(26,26,26)" height="2" width="2" x="148" y="118" /><rect fill="rgb(26,26,26)" height="2" width="2" x="150" y="118" /><rect fill="rgb(24,24,24)" height="2" width="2" x="152" y="118" /><rect fill="rgb(25,25,25)" height="2" width="2" x="154" y="118" /><rect fill="rgb(25,25,25)" height="2" width="2" x="156" y="118" /><rect fill="rgb(24,24,24)" height="2" width="2" x="162" y="118" /><rect fill="rgb(24,24,24)" height="2" width="2" x="164" y="118" /><rect fill="rgb(25,25,25)" height="2" width="2" x="174" y="118" /><rect fill="rgb(21,21,21)" height="2" width="2" x="176" y="118" /><rect fill="rgb(27,27,26)" height="2" width="2" x="86" y="120" /><rect fill="rgb(23,23,23)" height="2" width="2" x="88" y="120" /><rect fill="rgb(23,23,23)" height="2" width="2" x="90" y="120" /><rect fill="rgb(23,23,23)" height="2" width="2" x="92" y="120" /><rect fill="rgb(24,24,24)" height="2" width="2" x="94" y="120" /><rect fill="rgb(27,27,27)" height="2" width="2" x="104" y="120" /><rect fill="rgb(24,24,24)" height="2" width="2" x="106" y="120" /><rect fill="rgb(23,23,23)" height="2" width="2" x="108" y="120" /><rect fill="rgb(23,23,23)" height="2" width="2" x="110" y="120" /><rect fill="rgb(23,23,23)" height="2" width="2" x="112" y="120" /><rect fill="rgb(25,25,25)" height="2" width="2" x="114" y="120" /><rect fill="rgb(25,25,25)" height="2" width="2" x="116" y="120" /><rect fill="rgb(31,31,31)" height="2" width="2" x="126" y="120" /><rect fill="rgb(25,25,25)" height="2" width="2" x="128" y="120" /><rect fill="rgb(23,23,23)" height="2" width="2" x="130" y="120" /><rect fill="rgb(23,23,23)" height="2" width="2" x="132" y="120" /><rect fill="rgb(24,24,24)" height="2" width="2" x="134" y="120" /><rect fill="rgb(25,25,25)" height="2" width="2" x="136" y="120" /><rect fill="rgb(25,25,25)" height="2" width="2" x="144" y="120" /><rect fill="rgb(24,24,24)" height="2" width="2" x="146" y="120" /><rect fill="rgb(24,24,24)" height="2" width="2" x="148" y="120" /><rect fill="rgb(23,23,23)" height="2" width="2" x="150" y="120" /><rect fill="rgb(23,23,23)" height="2" width="2" x="152" y="120" /><rect fill="rgb(24,24,24)" height="2" width="2" x="154" y="120" /><rect fill="rgb(23,23,23)" height="2" width="2" x="156" y="120" /><rect fill="rgb(29,29,29)" height="2" width="2" x="160" y="120" /><rect fill="rgb(23,23,23)" height="2" width="2" x="162" y="120" /><rect fill="rgb(33,33,33)" height="2" width="2" x="164" y="120" /><rect fill="rgb(37,37,37)" height="2" width="2" x="174" y="120" /><rect fill="rgb(24,24,24)" height="2" width="2" x="176" y="120" /><rect fill="rgb(31,31,31)" height="2" width="2" x="178" y="120" /><rect fill="rgb(43,43,43)" height="2" width="2" x="110" y="122" /></svg>